<svg width="26" height="26" fill="none" xmlns="http://www.w3.org/2000/svg"><path d="M24.964 20.596c0 .432-.096.876-.3 1.308-.204.432-.468.84-.816 1.224-.588.648-1.236 1.116-1.968 1.416-.72.3-1.5.456-2.34.456-1.224 0-2.532-.288-3.912-.876-1.38-.588-2.76-1.38-4.128-2.376a34.496 34.496 0 0 1-3.936-3.36 34.094 34.094 0 0 1-3.348-3.924c-.984-1.368-1.776-2.736-2.352-4.092C1.288 9.004 1 7.696 1 6.448c0-.816.144-1.596.432-2.316a5.523 5.523 0 0 1 1.38-2.004C3.58 1.372 4.42 1 5.308 1c.336 0 .672.072.972.216.312.144.588.36.804.672l2.784 3.924c.216.3.372.576.48.84.108.252.168.504.168.732 0 .288-.084.576-.252.852a4.082 4.082 0 0 1-.672.852l-.912.948a.642.642 0 0 0-.192.48c0 .096.012.18.036.276.036.096.072.168.096.24.216.396.588.912 1.116 1.536.54.624 1.116 1.26 1.74 1.896a36.097 36.097 0 0 0 1.908 1.764c.624.528 1.14.888 1.548 1.104.06.024.132.06.216.096a.829.829 0 0 0 .3.048.66.66 0 0 0 .492-.204l.912-.9c.3-.3.588-.528.864-.672.276-.168.552-.252.852-.252.228 0 .468.048.732.156.264.108.54.264.84.468l3.972 2.82c.312.216.528.468.66.768.12.3.192.6.192.936z" stroke="#081937" stroke-width="1.5" stroke-miterlimit="10"/><path opacity=".4" d="M20.8 9.4c0-.72-.564-1.824-1.404-2.724C18.628 5.848 17.608 5.2 16.6 5.2M25 9.4C25 4.756 21.244 1 16.6 1" stroke="#081937" stroke-width="1.5" stroke-linecap="round" stroke-linejoin="round"/></svg>