<svg width="30" height="30" fill="none" xmlns="http://www.w3.org/2000/svg"><path d="m16.262 3.65 7.375 3.275c2.125.937 2.125 2.487 0 3.425l-7.375 3.275c-.837.375-2.212.375-3.05 0L5.837 10.35c-2.125-.938-2.125-2.488 0-3.425l7.375-3.275c.838-.375 2.213-.375 3.05 0z" stroke="#081937" stroke-width="1.5" stroke-linecap="round" stroke-linejoin="round"/><path opacity=".4" d="M3.75 13.75c0 1.05.787 2.262 1.75 2.688l8.488 3.774c.65.288 1.387.288 2.024 0l8.488-3.774c.962-.425 1.75-1.638 1.75-2.688" stroke="#081937" stroke-width="1.5" stroke-linecap="round" stroke-linejoin="round"/><path opacity=".4" d="M3.75 20c0 1.163.688 2.212 1.75 2.688l8.488 3.774c.65.288 1.387.288 2.024 0l8.488-3.774A2.946 2.946 0 0 0 26.25 20" stroke="#081937" stroke-width="1.5" stroke-linecap="round" stroke-linejoin="round"/></svg>