<svg width="28" height="28" fill="none" xmlns="http://www.w3.org/2000/svg"><path opacity=".4" d="M7.817 21H4.842c-1.669 0-2.509-.84-2.509-2.508V4.842c0-1.669.84-2.509 2.509-2.509h5.016c1.669 0 2.509.84 2.509 2.509V7" stroke="#0C1935" stroke-width="1.5" stroke-miterlimit="10" stroke-linecap="round" stroke-linejoin="round"/><path d="M20.265 9.823v13.02c0 1.879-.933 2.824-2.812 2.824H10.64c-1.878 0-2.823-.945-2.823-2.824V9.823C7.817 7.945 8.762 7 10.64 7h6.813c1.879 0 2.812.945 2.812 2.823z" stroke="#0C1935" stroke-width="1.5" stroke-miterlimit="10" stroke-linecap="round" stroke-linejoin="round"/><path opacity=".4" d="M15.633 7V4.842c0-1.669.84-2.509 2.509-2.509h5.016c1.669 0 2.509.84 2.509 2.509v13.65c0 1.668-.84 2.508-2.509 2.508h-2.893m-8.598-8.167h4.666m-4.666 3.5h4.666" stroke="#0C1935" stroke-width="1.5" stroke-miterlimit="10" stroke-linecap="round" stroke-linejoin="round"/><path d="M14 25.667v-3.5" stroke="#0C1935" stroke-width="1.5" stroke-miterlimit="10" stroke-linecap="round" stroke-linejoin="round"/></svg>