<svg width="30" height="30" fill="none" xmlns="http://www.w3.org/2000/svg"><path d="M27.5 10.625a8.125 8.125 0 0 1-8.775 8.1 8.136 8.136 0 0 0-7.45-7.45 8.125 8.125 0 1 1 16.225-.65z" stroke="#00B8A4" stroke-width="1.5" stroke-linecap="round" stroke-linejoin="round"/><path d="M18.75 19.375a8.125 8.125 0 1 1-16.25 0 8.125 8.125 0 0 1 16.25 0z" stroke="#00B8A4" stroke-width="1.5" stroke-linecap="round" stroke-linejoin="round"/><path opacity=".4" d="M6.987 2.5H3.75c-.688 0-1.25.563-1.25 1.25v3.237c0 1.113 1.35 1.675 2.138.888l3.237-3.237C8.65 3.85 8.1 2.5 6.987 2.5zm16.025 25h3.238c.688 0 1.25-.563 1.25-1.25v-3.238c0-1.112-1.35-1.675-2.137-.887l-3.238 3.238c-.775.787-.225 2.137.887 2.137z" stroke="#00B8A4" stroke-width="1.5" stroke-linecap="round" stroke-linejoin="round"/></svg>