<svg width="28" height="28" fill="none" xml:space="preserve" xmlns="http://www.w3.org/2000/svg"><g style="fill:none" stroke="#081937" stroke-width="1.5" stroke-linecap="round" stroke-linejoin="round"><path d="M13.949 25.923c6.443 0 11.666-5.223 11.666-11.667 0-6.443-5.223-11.666-11.666-11.666-6.444 0-11.667 5.223-11.667 11.666 0 6.444 5.223 11.667 11.667 11.667z"/><path opacity=".4" d="M9.282 3.756h1.167a33.16 33.16 0 0 0 0 21H9.282m8.167-21a33.162 33.162 0 0 1 0 21"/><path opacity=".4" d="M3.449 18.923v-1.167a33.162 33.162 0 0 0 21 0v1.167m-21-8.167a33.161 33.161 0 0 1 21 0"/></g></svg>