<?xml version="1.0" encoding="UTF-8" standalone="no"?>
<svg
   width="28"
   height="28"
   viewBox="0 0 28 28"
   fill="none"
   version="1.1"
   id="svg4"
   sodipodi:docname="dob.svg"
   xml:space="preserve"
   inkscape:version="1.3.2 (091e20e, 2023-11-25)"
   xmlns:inkscape="http://www.inkscape.org/namespaces/inkscape"
   xmlns:sodipodi="http://sodipodi.sourceforge.net/DTD/sodipodi-0.dtd"
   xmlns="http://www.w3.org/2000/svg"
   xmlns:svg="http://www.w3.org/2000/svg"><defs
     id="defs4" /><sodipodi:namedview
     id="namedview4"
     pagecolor="#ffffff"
     bordercolor="#000000"
     borderopacity="0.25"
     inkscape:showpageshadow="2"
     inkscape:pageopacity="0.0"
     inkscape:pagecheckerboard="0"
     inkscape:deskcolor="#d1d1d1"
     inkscape:zoom="9.75"
     inkscape:cx="14.051282"
     inkscape:cy="14.051282"
     inkscape:window-width="1392"
     inkscape:window-height="943"
     inkscape:window-x="815"
     inkscape:window-y="58"
     inkscape:window-maximized="0"
     inkscape:current-layer="svg4" /><g
     style="fill:none"
     id="g4"
     transform="translate(-0.35897436,0.25698304)"><path
       opacity="0.4"
       d="m 9.3335,14.2333 h 8.1667 M 9.3335,18.9 h 5.11 M 11.6668,6.99999 h 4.6667 c 2.3333,0 2.3333,-1.16666 2.3333,-2.33333 0,-2.33333 -1.1666,-2.33333 -2.3333,-2.33333 h -4.6667 c -1.1666,0 -2.3333,0 -2.3333,2.33333 0,2.33333 1.1667,2.33333 2.3333,2.33333 z"
       stroke="#081937"
       stroke-width="1.5"
       stroke-miterlimit="10"
       stroke-linecap="round"
       stroke-linejoin="round"
       id="path1-0" /><path
       d="M 18.6667,4.69 C 22.5517,4.9 24.5,6.335 24.5,11.6667 v 7 c 0,4.6666 -1.1667,7 -7,7 h -7 c -5.83333,0 -7,-2.3334 -7,-7 v -7 C 3.5,6.34667 5.44833,4.9 9.33333,4.69"
       stroke="#081937"
       stroke-width="1.5"
       stroke-miterlimit="10"
       stroke-linecap="round"
       stroke-linejoin="round"
       id="path2-2" /></g></svg>
