<svg width="28" height="28" viewBox="0 0 28 28" fill="none" xmlns="http://www.w3.org/2000/svg">
<g opacity="0.4">
<path d="M11.0833 16.0393C11.0833 17.171 11.9583 18.081 13.0316 18.081H15.2249C16.1583 18.081 16.9166 17.2877 16.9166 16.296C16.9166 15.2343 16.4499 14.8493 15.7616 14.6043L12.2499 13.3793C11.5616 13.1343 11.0949 12.761 11.0949 11.6877C11.0949 10.7077 11.8533 9.90267 12.7866 9.90267H14.9799C16.0533 9.90267 16.9283 10.8127 16.9283 11.9443M13.9999 8.75V19.25" stroke="#BE3093" stroke-width="1.5" stroke-linecap="round" stroke-linejoin="round"/>
</g>
<path d="M25.6666 14C25.6666 20.44 20.4399 25.6667 13.9999 25.6667C7.55992 25.6667 2.33325 20.44 2.33325 14C2.33325 7.56 7.55992 2.33334 13.9999 2.33334" stroke="#BE3093" stroke-width="1.5" stroke-linecap="round" stroke-linejoin="round"/>
<path d="M19.8333 3.5V8.16667M19.8333 8.16667H24.4999M19.8333 8.16667L25.6666 2.33334" stroke="#BE3093" stroke-width="1.5" stroke-linecap="round" stroke-linejoin="round"/>
</svg>
