<svg width="20" height="20" viewBox="0 0 20 20" fill="none" xmlns="http://www.w3.org/2000/svg">
<path d="M17.5248 5.43262H12.844" stroke="white" stroke-width="1.5" stroke-miterlimit="10" stroke-linecap="round" stroke-linejoin="round"/>
<path d="M5.04269 5.43261H1.92212M8.16325 8.16311C8.52183 8.16311 8.87689 8.09249 9.20817 7.95526C9.53945 7.81804 9.84046 7.61692 10.094 7.36337C10.3476 7.10982 10.5487 6.80881 10.6859 6.47753C10.8231 6.14625 10.8937 5.79119 10.8937 5.43261C10.8937 5.07404 10.8231 4.71898 10.6859 4.3877C10.5487 4.05642 10.3476 3.75541 10.094 3.50186C9.84046 3.24831 9.53945 3.04718 9.20817 2.90996C8.87689 2.77274 8.52183 2.70212 8.16325 2.70212C7.43908 2.70212 6.74457 2.98979 6.2325 3.50186C5.72043 4.01393 5.43276 4.70844 5.43276 5.43261C5.43276 6.15679 5.72043 6.8513 6.2325 7.36337C6.74457 7.87543 7.43908 8.16311 8.16325 8.16311Z" stroke="white" stroke-width="1.5" stroke-miterlimit="10" stroke-linecap="round" stroke-linejoin="round"/>
<path d="M6.60297 14.0142H1.92212" stroke="white" stroke-width="1.5" stroke-miterlimit="10" stroke-linecap="round" stroke-linejoin="round"/>
<path d="M17.5249 14.0142H14.4043M11.2837 16.7447C12.0079 16.7447 12.7024 16.457 13.2145 15.9449C13.7265 15.4329 14.0142 14.7384 14.0142 14.0142C14.0142 13.29 13.7265 12.5955 13.2145 12.0834C12.7024 11.5714 12.0079 11.2837 11.2837 11.2837C10.5595 11.2837 9.86503 11.5714 9.35297 12.0834C8.8409 12.5955 8.55322 13.29 8.55322 14.0142C8.55322 14.7384 8.8409 15.4329 9.35297 15.9449C9.86503 16.457 10.5595 16.7447 11.2837 16.7447Z" stroke="white" stroke-width="1.5" stroke-miterlimit="10" stroke-linecap="round" stroke-linejoin="round"/>
</svg>
