<?xml version="1.0" encoding="UTF-8" standalone="no"?>
<svg
   width="28"
   height="28"
   fill="none"
   version="1.1"
   id="svg4"
   sodipodi:docname="form_req.svg"
   xml:space="preserve"
   inkscape:version="1.3.2 (091e20e, 2023-11-25)"
   xmlns:inkscape="http://www.inkscape.org/namespaces/inkscape"
   xmlns:sodipodi="http://sodipodi.sourceforge.net/DTD/sodipodi-0.dtd"
   xmlns="http://www.w3.org/2000/svg"
   xmlns:svg="http://www.w3.org/2000/svg"><defs
     id="defs4" /><sodipodi:namedview
     id="namedview4"
     pagecolor="#ffffff"
     bordercolor="#000000"
     borderopacity="0.25"
     inkscape:showpageshadow="2"
     inkscape:pageopacity="0.0"
     inkscape:pagecheckerboard="0"
     inkscape:deskcolor="#d1d1d1"
     inkscape:zoom="24.142857"
     inkscape:cx="7.3313609"
     inkscape:cy="9.2988166"
     inkscape:window-width="1920"
     inkscape:window-height="1080"
     inkscape:window-x="0"
     inkscape:window-y="0"
     inkscape:window-maximized="0"
     inkscape:current-layer="svg4" /><path
     d="M23.917 13.183v-4.97c0-4.701-1.097-5.88-5.507-5.88H9.59c-4.41 0-5.507 1.179-5.507 5.88V21.35c0 3.103 1.704 3.838 3.769 1.622l.011-.012c.957-1.015 2.415-.933 3.244.175l1.178 1.575"
     stroke="#A880FF"
     stroke-width="1.5"
     stroke-linecap="round"
     stroke-linejoin="round"
     id="path1"
     style="stroke:#081937;stroke-opacity:1" /><path
     opacity=".4"
     d="M9.333 8.167h9.334M10.5 12.833h7"
     stroke="#A880FF"
     stroke-width="1.5"
     stroke-linecap="round"
     stroke-linejoin="round"
     id="path2"
     style="stroke:#081937;stroke-opacity:0.40000001" /><path
     d="m 17.814874,8.2532709 a 6.2598802,6.0887513 0 1 0 0.767968,8.5795981 0.53080855,0.51629763 0 1 1 0.813058,0.663957 7.3214973,7.1213466 0 1 1 1.466457,-6.422509 l 0.794579,-0.12174 a 0.53080855,0.51629763 0 0 1 0.565227,0.725417 l -0.9993,2.112953 a 0.53080855,0.51629763 0 0 1 -0.872078,0.134 L 18.72939,12.215005 a 0.53080855,0.51629763 0 0 1 0.30744,-0.860099 l 0.770893,-0.117835 A 6.234255,6.0638266 0 0 0 17.815462,8.2525892 Z"
     id="path1-7"
     style="fill:#081937;fill-opacity:1;stroke-width:0.902591" /></svg>
