<svg width="26" height="26" viewBox="0 0 26 26" fill="none" xmlns="http://www.w3.org/2000/svg">
<path d="M9.77175 3.07451L3.93258 7.62451C2.95758 8.38285 2.16675 9.99701 2.16675 11.2212V19.2487C2.16675 21.762 4.21425 23.8203 6.72758 23.8203H19.2726C21.7859 23.8203 23.8334 21.762 23.8334 19.2595V11.3728C23.8334 10.062 22.9559 8.38285 21.8834 7.63535L15.1884 2.94451C13.6717 1.88285 11.2342 1.93701 9.77175 3.07451Z" stroke="#0C1935" stroke-width="1.5" stroke-linecap="round" stroke-linejoin="round"/>
<g opacity="0.4">
<path d="M13 9.75V19.5M8.125 14.625H17.875M11.375 19.5H14.625C16.4125 19.5 17.875 18.0375 17.875 16.25V13C17.875 11.2125 16.4125 9.75 14.625 9.75H11.375C9.5875 9.75 8.125 11.2125 8.125 13V16.25C8.125 18.0375 9.5875 19.5 11.375 19.5Z" stroke="#0C1935" stroke-width="1.5" stroke-linecap="round" stroke-linejoin="round"/>
</g>
</svg>
