<?xml version="1.0" encoding="UTF-8" standalone="no"?>
<svg
   width="28"
   height="28"
   fill="none"
   version="1.1"
   id="svg4"
   sodipodi:docname="institute_fee.svg"
   xml:space="preserve"
   inkscape:version="1.3.2 (091e20e, 2023-11-25)"
   xmlns:inkscape="http://www.inkscape.org/namespaces/inkscape"
   xmlns:sodipodi="http://sodipodi.sourceforge.net/DTD/sodipodi-0.dtd"
   xmlns="http://www.w3.org/2000/svg"
   xmlns:svg="http://www.w3.org/2000/svg"><defs
     id="defs4" /><sodipodi:namedview
     id="namedview4"
     pagecolor="#ffffff"
     bordercolor="#000000"
     borderopacity="0.25"
     inkscape:showpageshadow="2"
     inkscape:pageopacity="0.0"
     inkscape:pagecheckerboard="0"
     inkscape:deskcolor="#d1d1d1"
     inkscape:zoom="17.071578"
     inkscape:cx="14.029166"
     inkscape:cy="9.313726"
     inkscape:window-width="1392"
     inkscape:window-height="943"
     inkscape:window-x="706"
     inkscape:window-y="49"
     inkscape:window-maximized="0"
     inkscape:current-layer="svg4" /><path
     d="M23.917 13.183v-4.97c0-4.701-1.097-5.88-5.507-5.88H9.59c-4.41 0-5.507 1.179-5.507 5.88V21.35c0 3.103 1.704 3.838 3.769 1.622l.011-.012c.957-1.015 2.415-.933 3.244.175l1.178 1.575"
     stroke="#A880FF"
     stroke-width="1.5"
     stroke-linecap="round"
     stroke-linejoin="round"
     id="path1"
     style="stroke:#081937;stroke-opacity:1" /><path
     opacity=".4"
     d="M9.333 8.167h9.334M10.5 12.833h7"
     stroke="#A880FF"
     stroke-width="1.5"
     stroke-linecap="round"
     stroke-linejoin="round"
     id="path2"
     style="stroke:#081937;stroke-opacity:0.40000001" /><path
     d="m21.246 17.23-4.13 4.13a1.437 1.437 0 0 0-.35.688l-.221 1.575c-.082.571.315.968.886.886l1.575-.221c.222-.035.537-.187.689-.35l4.13-4.13c.711-.712 1.05-1.54 0-2.59-1.039-1.039-1.867-.7-2.579.011z"
     stroke="#A880FF"
     stroke-width="1.5"
     stroke-miterlimit="10"
     stroke-linecap="round"
     stroke-linejoin="round"
     id="path3"
     style="stroke:#081937;stroke-opacity:1" /><path
     d="M20.65 17.823a3.716 3.716 0 0 0 2.59 2.59"
     stroke="#A880FF"
     stroke-width="1.5"
     stroke-miterlimit="10"
     stroke-linecap="round"
     stroke-linejoin="round"
     id="path4"
     style="stroke:#061938;stroke-opacity:0.16078432" /></svg>
