<?xml version="1.0" encoding="UTF-8" standalone="no"?>
<svg
   width="17"
   height="17"
   fill="none"
   version="1.1"
   id="svg2"
   sodipodi:docname="interset.svg"
   xml:space="preserve"
   inkscape:version="1.3.2 (091e20e, 2023-11-25)"
   xmlns:inkscape="http://www.inkscape.org/namespaces/inkscape"
   xmlns:sodipodi="http://sodipodi.sourceforge.net/DTD/sodipodi-0.dtd"
   xmlns="http://www.w3.org/2000/svg"
   xmlns:svg="http://www.w3.org/2000/svg"><defs
     id="defs2" /><sodipodi:namedview
     id="namedview2"
     pagecolor="#ffffff"
     bordercolor="#000000"
     borderopacity="0.25"
     inkscape:showpageshadow="2"
     inkscape:pageopacity="0.0"
     inkscape:pagecheckerboard="0"
     inkscape:deskcolor="#d1d1d1"
     inkscape:zoom="39.764706"
     inkscape:cx="8.5"
     inkscape:cy="8.487426"
     inkscape:window-width="1920"
     inkscape:window-height="1080"
     inkscape:window-x="0"
     inkscape:window-y="0"
     inkscape:window-maximized="0"
     inkscape:current-layer="svg2" /><path
     fill-rule="evenodd"
     d="m 8.5,4.8975552 c 1.387,-1.425 4.854,1.07 0,4.277 -4.854,-3.207 -1.387,-5.701 0,-4.275 z"
     id="path1-8"
     style="fill:#081937;fill-opacity:0.40000001" /><path
     d="m 2.5,2.4875552 a 2,2 0 0 1 2,-2.00000002 h 8 a 2,2 0 0 1 2,2.00000002 V 15.987555 a 0.5,0.5 0 0 1 -0.777,0.416 l -5.223,-2.815 -5.223,2.815 a 0.5,0.5 0 0 1 -0.777,-0.416 z m 2,-1 a 1,1 0 0 0 -1,1 V 15.053555 l 4.723,-2.482 a 0.5,0.5 0 0 1 0.554,0 l 4.723,2.482 V 2.4875552 a 1,1 0 0 0 -1,-1 z"
     id="path2-0"
     style="fill:#081937;fill-opacity:1" /></svg>
