<svg width="25" height="25" viewBox="0 0 25 25" fill="none" xmlns="http://www.w3.org/2000/svg">
<path d="M1.03149 14.823C1.56476 17.4171 2.97772 19.7473 5.03134 21.4196C7.08495 23.0918 9.65315 24.0033 12.3015 24C17.8445 24 22.4675 20.0785 23.56 14.8575M23.583 10.269C22.548 4.979 17.8905 1 12.3015 1C6.74699 1 2.11249 4.9445 1.03149 10.177" stroke="white" stroke-width="1.5" stroke-linecap="round" stroke-linejoin="round"/>
<path opacity="0.4" d="M12.3014 14.2249C12.7589 14.2249 13.1977 14.0432 13.5212 13.7197C13.8447 13.3962 14.0264 12.9574 14.0264 12.4999C14.0264 12.0424 13.8447 11.6036 13.5212 11.2801C13.1977 10.9566 12.7589 10.7749 12.3014 10.7749C11.8439 10.7749 11.4052 10.9566 11.0817 11.2801C10.7582 11.6036 10.5764 12.0424 10.5764 12.4999C10.5764 12.9574 10.7582 13.3962 11.0817 13.7197C11.4052 14.0432 11.8439 14.2249 12.3014 14.2249Z" stroke="white" stroke-width="1.5" stroke-linecap="round" stroke-linejoin="round"/>
</svg>
