<svg width="54" height="54" fill="none" xmlns="http://www.w3.org/2000/svg"><circle cx="27" cy="27" r="27" fill="#A958C6"/><path opacity=".4" d="M37.625 21.875v11.25c0 3.375-1.688 5.625-5.625 5.625h-9c-3.938 0-5.625-2.25-5.625-5.625v-11.25c0-3.375 1.688-5.625 5.625-5.625h9c3.938 0 5.625 2.25 5.625 5.625z" fill="#fff"/><path d="M31.438 16.25v8.843a.564.564 0 0 1-.945.416l-2.61-2.408a.558.558 0 0 0-.765 0l-2.61 2.408a.563.563 0 0 1-.945-.416V16.25h7.875zm2.25 14.344h-4.782a.85.85 0 0 1-.843-.844.85.85 0 0 1 .843-.844h4.782a.85.85 0 0 1 .843.844.85.85 0 0 1-.843.844zm0 4.5h-9.563a.85.85 0 0 1-.844-.844.85.85 0 0 1 .844-.844h9.563a.85.85 0 0 1 .843.844.85.85 0 0 1-.843.844z" fill="#fff"/></svg>