<svg width="18.377" height="18.433" viewBox="0 0 4.862 4.877" xml:space="preserve" xmlns="http://www.w3.org/2000/svg"><g transform="translate(-56.05 -80.778) scale(.59949)"><path style="fill:#fe0000;fill-opacity:1" d="M100.412 134.744c-.607 0-1.19.583-1.19 1.19 0 .388.276.844.623 1.03.165.089.42.161.567.161.608 0 1.191-.582 1.191-1.19s-.583-1.19-1.19-1.19zm.006.494c.604 0 .94.765.519 1.178-.374.368-.944.273-1.167-.193-.227-.474.109-.985.648-.985z"/><path style="fill:#081936;fill-opacity:1" d="M97.32 142.845c-.236-.063-.499-.34-.938-.993-.033-.05-.392-.117-.796-.148-1.19-.093-1.704-.45-1.973-1.374-.109-.375-.131-.838-.108-2.257.03-1.96.062-2.093.629-2.69.494-.52 1.003-.639 2.743-.639 1.2 0 1.551.027 1.631.123.08.095.07.155-.04.265-.118.119-.384.142-1.656.143-1.28.002-1.57.027-1.868.164-.82.377-.926.71-.924 2.896.003 2.509.137 2.732 1.713 2.849.765.056.795.067 1.014.357.124.165.355.439.512.61l.287.31.287-.31c.157-.171.387-.444.51-.607.21-.28.263-.3.926-.359 1.42-.126 1.805-.603 1.805-2.242 0-.968.103-1.257.408-1.14.21.081.139 2.238-.09 2.674-.404.77-1.2 1.235-2.114 1.235h-.467l-.38.524c-.412.57-.69.722-1.111.61z"/><circle style="fill:#9ba2ae;fill-opacity:1;stroke-width:.235185" cx="96.061" cy="138.43" r=".371"/><circle style="fill:#9ba2ae;fill-opacity:1;stroke-width:.235185" cx="97.648" cy="138.43" r=".371"/><circle style="fill:#9ba2ae;fill-opacity:1;stroke-width:.235185" cx="99.236" cy="138.43" r=".371"/></g></svg>