<svg width="20" height="26" fill="none" xmlns="http://www.w3.org/2000/svg"><path d="M19 7v12c0 4.8-1.125 6-5.625 6h-6.75C2.125 25 1 23.8 1 19V7c0-4.8 1.125-6 5.625-6h6.75C17.875 1 19 2.2 19 7z" stroke="#081937" stroke-width="1.5" stroke-linecap="round" stroke-linejoin="round"/><path opacity=".4" d="M12.25 4.85h-4.5M10 21.81c.463 0 .906-.18 1.233-.5.327-.32.51-.753.51-1.205 0-.452-.183-.886-.51-1.206-.327-.32-.77-.499-1.233-.499-.462 0-.906.18-1.233.5-.327.32-.51.753-.51 1.205 0 .452.183.886.51 1.206.327.32.77.499 1.233.499z" stroke="#081937" stroke-width="1.5" stroke-linecap="round" stroke-linejoin="round"/></svg>