<svg width="30" height="30" fill="none" xmlns="http://www.w3.org/2000/svg"><path d="M7.5 5A12.489 12.489 0 0 1 15 2.5c6.9 0 12.5 5.6 12.5 12.5S21.9 27.5 15 27.5 2.5 21.9 2.5 15c0-2.262.6-4.387 1.662-6.225L15 15" stroke="#081937" stroke-width="1.5" stroke-miterlimit="10" stroke-linecap="round" stroke-linejoin="round"/><path opacity=".4" d="M8.538 11.2A7.4 7.4 0 0 0 7.5 15c0 4.137 3.363 7.5 7.5 7.5 4.137 0 7.5-3.363 7.5-7.5 0-4.137-3.363-7.5-7.5-7.5-1.137 0-2.225.25-3.188.713" stroke="#081937" stroke-width="1.5" stroke-miterlimit="10" stroke-linecap="round" stroke-linejoin="round"/></svg>