<?xml version="1.0" encoding="UTF-8" standalone="no"?>
<svg
   width="28"
   height="28"
   fill="none"
   version="1.1"
   id="svg3"
   sodipodi:docname="more.svg"
   xml:space="preserve"
   inkscape:version="1.3.2 (091e20e, 2023-11-25)"
   xmlns:inkscape="http://www.inkscape.org/namespaces/inkscape"
   xmlns:sodipodi="http://sodipodi.sourceforge.net/DTD/sodipodi-0.dtd"
   xmlns="http://www.w3.org/2000/svg"
   xmlns:svg="http://www.w3.org/2000/svg"><defs
     id="defs3" /><sodipodi:namedview
     id="namedview3"
     pagecolor="#ffffff"
     bordercolor="#000000"
     borderopacity="0.25"
     inkscape:showpageshadow="2"
     inkscape:pageopacity="0.0"
     inkscape:pagecheckerboard="0"
     inkscape:deskcolor="#d1d1d1"
     inkscape:zoom="23.214286"
     inkscape:cx="24.941538"
     inkscape:cy="13.978462"
     inkscape:window-width="1920"
     inkscape:window-height="1080"
     inkscape:window-x="0"
     inkscape:window-y="0"
     inkscape:window-maximized="0"
     inkscape:current-layer="svg3" /><path
     d="M20.463 9.695a2.87 2.87 0 1 0 0-5.74 2.87 2.87 0 0 0 0 5.74z"
     stroke="#00C854"
     stroke-width="1.5"
     stroke-miterlimit="10"
     stroke-linecap="round"
     stroke-linejoin="round"
     id="path1"
     style="stroke:#081937;stroke-opacity:1" /><path
     opacity=".4"
     d="M7.537 9.695a2.87 2.87 0 1 0 0-5.74 2.87 2.87 0 0 0 0 5.74zm12.926 14.351a2.87 2.87 0 1 0 0-5.74 2.87 2.87 0 0 0 0 5.74z"
     stroke="#00C854"
     stroke-width="1.5"
     stroke-miterlimit="10"
     stroke-linecap="round"
     stroke-linejoin="round"
     id="path2"
     style="stroke:#081937;stroke-opacity:0.40000001" /><path
     d="M7.537 24.046a2.87 2.87 0 1 0 0-5.74 2.87 2.87 0 0 0 0 5.74z"
     stroke="#00C854"
     stroke-width="1.5"
     stroke-miterlimit="10"
     stroke-linecap="round"
     stroke-linejoin="round"
     id="path3"
     style="stroke:#081937;stroke-opacity:1" /></svg>
