<?xml version="1.0" encoding="UTF-8" standalone="no"?>
<!-- Created with Inkscape (http://www.inkscape.org/) -->

<svg
   width="69.528549mm"
   height="70.617294mm"
   viewBox="0 0 69.528549 70.617294"
   version="1.1"
   id="svg1"
   xml:space="preserve"
   inkscape:version="1.3.2 (091e20e, 2023-11-25)"
   sodipodi:docname="notdata.svg"
   xmlns:inkscape="http://www.inkscape.org/namespaces/inkscape"
   xmlns:sodipodi="http://sodipodi.sourceforge.net/DTD/sodipodi-0.dtd"
   xmlns="http://www.w3.org/2000/svg"
   xmlns:svg="http://www.w3.org/2000/svg"><sodipodi:namedview
     id="namedview1"
     pagecolor="#ffffff"
     bordercolor="#000000"
     borderopacity="0.25"
     inkscape:showpageshadow="2"
     inkscape:pageopacity="0.0"
     inkscape:pagecheckerboard="0"
     inkscape:deskcolor="#d1d1d1"
     inkscape:document-units="mm"
     inkscape:zoom="1.4235831"
     inkscape:cx="-3.8634908"
     inkscape:cy="88.157835"
     inkscape:window-width="1920"
     inkscape:window-height="1080"
     inkscape:window-x="0"
     inkscape:window-y="0"
     inkscape:window-maximized="0"
     inkscape:current-layer="layer1" /><defs
     id="defs1" /><g
     inkscape:label="Layer 1"
     inkscape:groupmode="layer"
     id="layer1"
     transform="translate(-81.620868,-128.7539)"><g
       id="g28"><path
         id="path24"
         style="fill:#0066ff;fill-opacity:1;stroke-width:0.222523"
         d="m 126.3119,129.03715 v 0.79393 0.79392 l -0.14106,-0.11991 c -0.29679,-0.25236 -0.92566,-0.35736 -1.41017,-0.23554 -0.28584,0.0719 -0.71057,0.40277 -0.86217,0.67173 -0.17865,0.31696 -0.25916,0.8762 -0.18988,1.31904 0.10534,0.67322 0.526,1.2339 1.02521,1.36653 0.29734,0.079 0.75879,0.0664 1.00757,-0.0274 0.12655,-0.0477 0.33457,-0.17886 0.4622,-0.29144 l 0.23207,-0.20469 v 0.26344 0.26344 h 0.64979 0.6498 v -2.29655 -2.29655 h -0.71168 z m -0.64036,2.13584 c 0.13546,0.003 0.27689,0.0507 0.40261,0.1524 0.17191,0.13902 0.20103,0.20357 0.22458,0.4982 0.0317,0.39641 -0.0674,0.71544 -0.2554,0.82259 -0.62318,0.35515 -1.11575,-0.18716 -0.93069,-1.02464 0.0636,-0.28764 0.30029,-0.45266 0.5589,-0.44855 z" /><path
         id="path16"
         style="fill:#c83737;stroke-width:0.222523"
         d="m 96.634054,130.66045 -0.274977,0.25359 -0.274978,0.25348 0.477674,0.43235 0.477556,0.43224 -0.477072,0.43444 -0.477192,0.43443 0.274493,0.25315 0.274496,0.25316 0.481541,-0.43334 0.481664,-0.43333 0.481543,0.43333 0.481543,0.43334 0.274493,-0.25305 0.274375,-0.25315 -0.446613,-0.40686 c -0.245629,-0.22382 -0.446491,-0.43101 -0.446491,-0.46037 0,-0.0293 0.200862,-0.23654 0.446491,-0.46035 l 0.446613,-0.40687 -0.274375,-0.25315 -0.274493,-0.25304 -0.481543,0.43333 -0.481543,0.43334 -0.481664,-0.43334 z" /><path
         id="path12"
         style="fill:#a5c8ff;fill-opacity:1;stroke-width:0.222523"
         d="m 97.555879,129.11908 c -0.597676,0.0135 -1.201024,0.17197 -1.687235,0.46095 -2.258814,1.34252 -1.852835,4.39366 0.694014,5.21518 0.861988,0.27805 1.960275,0.17084 2.719731,-0.2651 l 0.279569,-0.16019 0.505392,0.45992 c 0.3476,0.31626 0.49353,0.48729 0.46768,0.54828 -0.0207,0.0487 -0.005,0.19864 0.0341,0.3328 0.063,0.2144 0.31222,0.46253 2.05982,2.05052 1.23492,1.12216 2.08317,1.8488 2.2381,1.91823 0.29382,0.13163 0.45961,0.13969 0.7307,0.0351 0.27244,-0.10507 0.47814,-0.32062 0.53899,-0.56482 0.11035,-0.44286 0.0723,-0.4874 -2.09342,-2.45722 -1.11171,-1.01114 -2.09657,-1.87421 -2.18848,-1.91823 -0.0919,-0.044 -0.28746,-0.0801 -0.4346,-0.0801 -0.25174,0 -0.29624,-0.0259 -0.75086,-0.43977 l -0.48318,-0.43977 0.19844,-0.29197 c 0.2982,-0.43865 0.43055,-0.8874 0.42892,-1.45211 -0.002,-0.583 -0.0696,-0.87371 -0.3111,-1.3317 -0.35456,-0.67243 -1.073242,-1.23314 -1.903239,-1.48466 -0.32826,-0.0995 -0.684741,-0.14349 -1.043348,-0.13539 z m 0.226343,0.37 v 5.2e-4 c 0.271684,0.003 0.433197,0.0311 0.681612,0.10645 0.96098,0.29154 1.635226,0.93927 1.896006,1.82159 0.37756,1.2774 -0.481091,2.65854 -1.90169,3.05873 -0.438262,0.12347 -1.251945,0.13742 -1.634526,0.0279 -1.083995,-0.31029 -1.812269,-1.07606 -2.01228,-2.11564 -0.199445,-1.03663 0.477033,-2.16209 1.603003,-2.66702 0.411473,-0.18451 0.51677,-0.20716 1.052132,-0.22634 0.122454,-0.004 0.225181,-0.007 0.315743,-0.006 z m 4.036968,5.69888 c 0.1268,0.0189 0.49759,0.33679 1.84794,1.55597 1.30891,1.18176 1.78882,1.64935 1.77612,1.73065 -0.01,0.0613 -0.0596,0.11812 -0.11059,0.12712 -0.0998,0.0168 -3.65093,-3.16435 -3.65093,-3.2706 0,-0.0345 0.0429,-0.0954 0.0956,-0.13488 0.0103,-0.008 0.0237,-0.011 0.0419,-0.008 z" /><path
         id="path21"
         style="fill:#0066ff;fill-opacity:1;stroke-width:0.222523"
         d="m 111.55354,130.24143 c -0.62056,0 -0.71363,0.014 -1.03234,0.15569 -0.69338,0.30819 -1.05834,0.84372 -1.05834,1.55273 0,0.82454 0.50989,1.44167 1.37464,1.66366 0.16978,0.0436 0.5048,0.0645 0.84391,0.0528 0.91886,-0.0318 1.47997,-0.33747 1.8134,-0.98789 0.12967,-0.25293 0.15739,-0.38903 0.15423,-0.75651 -0.006,-0.72685 -0.31489,-1.19097 -0.99318,-1.49322 -0.39938,-0.17798 -0.45401,-0.18718 -1.10232,-0.18718 z m -0.0474,0.82205 c 0.0559,8.4e-4 0.11927,0.0186 0.21914,0.0505 0.339,0.10847 0.47963,0.29952 0.52046,0.70706 0.039,0.38912 -0.046,0.6747 -0.25322,0.85091 -0.17824,0.15157 -0.51502,0.20167 -0.71276,0.10601 -0.27561,-0.13331 -0.39134,-0.34214 -0.41713,-0.753 -0.0289,-0.45966 0.0878,-0.7136 0.40419,-0.88024 0.10812,-0.057 0.16747,-0.0827 0.23932,-0.0812 z" /><path
         style="fill:#0066ff;fill-opacity:1;stroke-width:0.569455"
         d="m 132.71207,135.8912 c -0.0744,-0.0561 -0.2294,-0.31682 -0.34457,-0.57942 -0.36488,-0.83205 -0.9043,-1.54119 -1.61589,-2.12428 -0.42565,-0.34879 -0.52995,-0.62941 -0.34107,-0.91768 0.35324,-0.53911 0.82069,-0.38953 1.69842,0.5435 0.81875,0.87035 1.52271,2.07448 1.52271,2.60464 0,0.43269 -0.57859,0.73044 -0.9196,0.47324 z"
         id="path11" /><path
         style="fill:#0066ff;fill-opacity:1;stroke-width:0.569455"
         d="m 131.07349,143.08308 c -0.33585,-0.26417 -0.29558,-0.6357 0.1161,-1.07122 0.66329,-0.7017 1.15786,-1.55531 1.47338,-2.54297 0.17019,-0.53273 0.32581,-0.69618 0.66656,-0.70006 0.24267,-0.003 0.62839,0.3124 0.62839,0.51344 0,0.24719 -0.43166,1.42646 -0.70466,1.9251 -0.53719,0.98119 -1.4802,2.04476 -1.81298,2.04476 -0.0835,0 -0.2486,-0.0761 -0.36679,-0.16905 z"
         id="path8" /><path
         style="fill:#0066ff;fill-opacity:1;stroke-width:0.569455"
         d="m 125.06771,145.78054 c -0.16829,-0.1683 -0.19399,-0.25089 -0.16493,-0.53015 0.0262,-0.25175 0.22768,-0.42722 0.55768,-0.48564 0.59841,-0.10597 2.10978,-0.55942 2.76315,-0.82904 0.78906,-0.32562 0.99632,-0.34022 1.23421,-0.087 0.21412,0.22791 0.2284,0.54857 0.0346,0.77706 -0.19783,0.23325 -1.60919,0.78095 -2.76598,1.07339 -1.14195,0.28868 -1.43696,0.30315 -1.65873,0.0814 z"
         id="path7" /><path
         style="fill:#0066ff;fill-opacity:1;stroke-width:0.569455"
         d="m 118.66513,146.27188 c -0.78239,-0.0623 -0.90299,-0.11056 -1.00446,-0.40165 -0.0887,-0.25453 0.0676,-0.73383 0.24608,-0.75438 0.0582,-0.007 1.09686,-0.003 2.30805,0.008 2.09875,0.0197 2.21078,0.0285 2.38567,0.18953 0.25288,0.23277 0.23926,0.58598 -0.0323,0.83765 -0.21426,0.19857 -0.22676,0.19991 -1.73319,0.18622 -0.83455,-0.008 -1.81099,-0.0372 -2.16986,-0.0658 z"
         id="path6" /><path
         style="fill:#0066ff;fill-opacity:1;stroke-width:0.569455"
         d="m 111.03912,146.9224 c -0.16302,-0.16303 -0.20813,-0.44029 -0.11228,-0.69008 0.10493,-0.27345 1.10258,-0.63573 2.56207,-0.93038 1.34419,-0.27137 1.64757,-0.28715 1.8878,-0.0982 0.26745,0.21037 0.3173,0.40741 0.18355,0.72549 -0.11899,0.28301 -0.0787,0.26933 -1.46258,0.49664 -0.53831,0.0884 -1.32155,0.27301 -1.74054,0.4102 -0.89429,0.29281 -1.09816,0.30616 -1.31802,0.0863 z"
         id="path5" /><path
         style="fill:#0066ff;fill-opacity:1;stroke-width:0.569455"
         d="m 107.90336,154.07081 c -0.23412,-0.23413 -0.33859,-1.0913 -0.2632,-2.15958 0.0567,-0.80359 0.2249,-1.07388 0.66823,-1.07388 0.49458,0 0.54591,0.1535 0.56483,1.68915 0.0156,1.26723 0.005,1.3831 -0.14625,1.55293 -0.21544,0.24236 -0.5764,0.23858 -0.82361,-0.009 z"
         id="path4" /><path
         style="fill:#0066ff;fill-opacity:1;stroke-width:0.569455"
         d="m 109.87734,158.49787 c -0.34436,-0.2006 -1.28391,-1.8587 -1.22118,-2.15511 0.0613,-0.28942 0.27104,-0.44859 0.59127,-0.44859 0.34455,0 0.36893,0.0224 0.75244,0.69327 0.15388,0.26916 0.39896,0.67862 0.54462,0.90995 0.26226,0.41646 0.26353,0.42335 0.1296,0.70558 -0.16696,0.35184 -0.49229,0.47226 -0.79675,0.2949 z"
         id="path3" /><path
         style="fill:#0066ff;stroke-width:0.569455"
         d="m 114.13846,171.02387 c -1.41305,-0.46343 -3.61521,-1.18005 -4.89369,-1.59248 -1.27847,-0.41244 -2.69153,-0.87051 -3.14012,-1.01795 -0.44859,-0.14743 -1.97175,-0.64243 -3.38479,-1.10001 -1.41306,-0.45757 -3.046334,-0.98754 -3.629494,-1.17771 l -1.0603,-0.34577 1.71279,-0.55083 c 0.942044,-0.30295 1.969714,-0.63775 2.283724,-0.74402 0.56431,-0.19097 6.61366,-2.16127 9.29801,-3.02841 2.64458,-0.85429 5.13947,-1.67065 5.35548,-1.75238 0.18415,-0.0697 0.75349,0.0927 3.75183,1.07012 1.9441,0.63374 3.7366,1.22102 3.98332,1.30504 0.24672,0.084 1.71483,0.56242 3.26246,1.06309 1.54763,0.50068 3.52958,1.14488 4.40433,1.43156 0.87474,0.28667 2.06393,0.67616 2.64262,0.86552 l 1.05218,0.34429 -2.35716,0.76456 c -2.4519,0.79529 -4.50425,1.46218 -7.21008,2.34286 -0.87474,0.28471 -2.80164,0.90884 -4.28198,1.38695 -1.48034,0.47811 -3.18706,1.03189 -3.79271,1.23062 -0.60565,0.19872 -1.17454,0.35822 -1.2642,0.35443 -0.0897,-0.004 -1.31916,-0.38605 -2.73222,-0.84948 z"
         id="path2" /><path
         style="fill:#a5c8ff;fill-opacity:1;stroke-width:0.569455"
         d="m 116.54453,198.73653 c -0.32374,-0.048 -2.0735,-0.55826 -5.95399,-1.73651 -0.85232,-0.2588 -2.37548,-0.71725 -3.38481,-1.01878 -1.00932,-0.30153 -2.47743,-0.74176 -3.26246,-0.97828 -0.78502,-0.23652 -1.8861,-0.56541 -2.44684,-0.73087 -1.530544,-0.45163 -2.171404,-0.64387 -3.914954,-1.17437 -0.87475,-0.26615 -2.17769,-0.65903 -2.89544,-0.87306 -0.71774,-0.21403 -1.41509,-0.43634 -1.54967,-0.49403 -0.45941,-0.19696 -1.05276,-0.72505 -1.31849,-1.1735 -0.50634,-0.85449 -0.524,-1.03724 -0.49866,-5.16097 0.0216,-3.51772 0.0309,-3.72051 0.17817,-3.88316 0.20277,-0.22396 0.64434,-0.22831 0.86415,-0.008 0.15826,0.15826 0.16318,0.27323 0.16507,3.85378 0.001,2.02987 0.0345,3.83071 0.0742,4.00188 0.1018,0.43858 0.46654,0.93022 0.85611,1.15396 0.18258,0.10486 3.35994,1.09745 7.060804,2.20575 9.21839,2.76066 12.71301,3.81122 14.15092,4.25407 0.67288,0.20724 1.48033,0.43271 1.79435,0.50105 l 0.57093,0.12425 1.30498,-0.38678 c 0.71774,-0.21273 1.76377,-0.52754 2.32451,-0.69957 0.56073,-0.17204 2.06554,-0.62495 3.34402,-1.00647 3.19482,-0.95339 7.84818,-2.34833 9.42036,-2.82395 0.71775,-0.21713 2.56605,-0.77281 4.10735,-1.23483 2.74087,-0.82162 2.8101,-0.84758 3.1548,-1.18259 0.6135,-0.59624 0.60854,-0.54871 0.60854,-5.83913 0,-2.54882 -0.0248,-4.63422 -0.0551,-4.63422 -0.049,0 -2.73251,0.8627 -5.32798,1.71284 -1.46659,0.48038 -5.62572,1.82955 -6.93273,2.24889 -0.65045,0.2087 -1.78361,0.57717 -2.51813,0.81883 -1.49245,0.49103 -2.00545,0.54886 -2.52154,0.28422 -0.46741,-0.23967 -0.58732,-0.37486 -1.41774,-1.5984 -0.42623,-0.62803 -1.09943,-1.619 -1.49598,-2.20217 -2.14008,-3.14714 -2.87651,-4.25821 -2.92558,-4.41394 -0.0911,-0.28926 0.0768,-0.58797 0.37469,-0.6664 0.51853,-0.13652 0.37882,-0.29907 2.71921,3.16365 0.62154,0.9196 1.56481,2.31394 2.09615,3.09853 0.53135,0.78459 1.04693,1.47054 1.14573,1.52434 0.0988,0.0538 0.2714,0.0776 0.38355,0.053 0.19738,-0.0435 1.62524,-0.49776 3.30324,-1.05105 0.44859,-0.14792 2.19197,-0.71462 3.87418,-1.25936 1.6822,-0.54473 3.55404,-1.15203 4.15964,-1.34956 2.03444,-0.66358 5.32128,-1.72961 8.15615,-2.6453 3.3503,-1.08218 3.23823,-1.04069 3.38806,-1.25459 0.21925,-0.31303 0.13114,-0.54607 -0.64846,-1.71509 -1.95162,-2.92647 -5.26373,-7.81844 -5.43967,-8.03434 -0.17084,-0.20966 -0.51788,-0.34373 -2.76455,-1.06803 -1.41306,-0.45555 -2.99127,-0.96883 -3.50715,-1.14061 -0.51587,-0.17179 -1.47014,-0.48252 -2.1206,-0.69051 -1.62181,-0.51861 -6.79077,-2.20057 -7.78913,-2.53455 -0.44859,-0.15007 -1.97175,-0.64771 -3.3848,-1.10588 -1.41306,-0.45816 -3.11785,-1.01125 -3.78842,-1.22908 -0.67058,-0.21784 -1.27861,-0.39607 -1.35117,-0.39607 -0.0726,0 -0.56994,0.1442 -1.10527,0.32044 -0.53534,0.17624 -2.23958,0.7302 -3.78721,1.23104 -1.54763,0.50084 -3.01574,0.97886 -3.26246,1.06226 -0.24673,0.0834 -1.93505,0.63381 -3.75184,1.22313 -4.06506,1.31861 -6.432934,2.0889 -8.041874,2.6161 -0.9999,0.32765 -1.27123,0.38843 -1.44276,0.32321 -0.40388,-0.15355 -0.51305,-0.67621 -0.20079,-0.96128 0.1057,-0.0965 0.96166,-0.41749 2.01865,-0.757 1.00932,-0.3242 2.20216,-0.71178 2.65075,-0.86128 0.448594,-0.1495 2.136914,-0.7003 3.751824,-1.22399 1.61492,-0.5237 3.46841,-1.12605 4.11886,-1.33858 0.65045,-0.21252 1.53132,-0.49899 1.95748,-0.63659 3.10498,-1.00263 6.11711,-1.99529 6.11711,-2.01592 0,-0.0259 -0.92672,-1.41023 -1.03814,-1.55073 -0.0356,-0.0449 -0.41022,-0.5954 -0.83254,-1.22342 -0.42232,-0.62802 -1.19636,-1.76581 -1.7201,-2.5284 -0.52373,-0.76261 -1.2148,-1.77716 -1.53569,-2.25458 -0.40537,-0.60308 -0.64478,-0.88341 -0.78439,-0.91845 -0.18305,-0.046 -0.82789,0.14062 -3.18325,0.92099 -0.26915,0.0892 -1.75561,0.57216 -3.30324,1.0733 -1.54762,0.50115 -3.36441,1.09107 -4.037294,1.31095 -2.25795,0.73783 -7.03322,2.2872 -10.1952,3.30791 -1.97276,0.63681 -2.24274,0.73719 -2.42645,0.90212 -0.33259,0.29859 -0.22149,0.52451 1.53666,3.12462 0.92366,1.366 2.1767,3.2258 2.78453,4.13288 1.01469,1.51428 1.13256,1.65906 1.44033,1.76913 0.18436,0.0659 1.38123,0.45599 2.65971,0.86679 1.27848,0.4108 2.69153,0.86918 3.14012,1.01863 0.44859,0.14944 1.861644,0.60841 3.140124,1.01991 1.27848,0.41151 3.1503,1.01705 4.15963,1.34564 1.00932,0.3286 3.15643,1.02455 4.77135,1.54657 1.61492,0.52201 3.71576,1.20552 4.66854,1.5189 l 1.73232,0.56978 2.79435,-0.90595 c 1.53688,-0.49827 3.10631,-1.01235 3.48761,-1.14241 0.3813,-0.13006 1.79435,-0.58869 3.14012,-1.01919 1.34576,-0.4305 2.70377,-0.86886 3.01778,-0.97413 0.31401,-0.10528 1.72706,-0.56531 3.14012,-1.02229 1.41305,-0.45699 3.28211,-1.06628 4.15348,-1.35398 0.87136,-0.2877 1.65296,-0.52309 1.73689,-0.52309 0.23367,0 0.55299,0.36641 0.55299,0.63456 0,0.22917 -0.28298,0.58886 -0.46327,0.58886 -0.0472,0 -0.57698,0.16142 -1.17739,0.35871 -0.60041,0.19728 -2.24779,0.73294 -3.66084,1.19035 -1.41306,0.45741 -3.28489,1.06456 -4.15964,1.34923 -8.54515,2.78085 -10.49737,3.4135 -11.37784,3.68716 -0.35887,0.11153 -0.70925,0.25258 -0.77861,0.31342 -0.0694,0.0608 -0.52809,0.70813 -1.01939,1.4384 -0.4913,0.73028 -0.92283,1.36448 -0.95896,1.40934 -0.0727,0.0903 -1.88723,2.76865 -3.60375,5.31943 -0.61038,0.90703 -1.22218,1.76155 -1.35956,1.89893 -0.5722,0.5722 -1.25824,0.62984 -2.52933,0.2125 -1.98254,-0.65093 -4.27306,-1.39677 -6.67441,-2.17331 -1.413054,-0.45695 -3.615214,-1.17205 -4.893694,-1.58913 -1.27848,-0.41707 -3.75591,-1.22282 -5.50541,-1.79055 -4.86771,-1.57963 -4.87689,-1.58275 -5.14932,-1.74888 -0.69769,-0.42546 -1.03505,-1.43403 -0.7266,-2.17225 0.0654,-0.15645 1.02724,-1.63255 2.13749,-3.28023 1.11026,-1.64769 2.21519,-3.28941 2.45541,-3.64828 0.50159,-0.74934 0.73471,-0.9175 1.07599,-0.77614 0.27683,0.11467 0.44829,0.41342 0.38331,0.6679 -0.0267,0.10439 -1.15078,1.82078 -2.49805,3.8142 -1.6482,2.43868 -2.44958,3.69351 -2.44958,3.83564 0,0.27824 0.18418,0.53065 0.46573,0.63825 0.12515,0.0478 1.38368,0.4596 2.79673,0.91504 1.41306,0.45545 2.77106,0.89669 3.01778,0.98053 0.24672,0.0838 1.60472,0.52512 3.01778,0.98061 3.5847,1.15552 5.956054,1.92618 6.769614,2.20004 0.3813,0.12836 1.73929,0.5696 3.01777,0.98054 1.27847,0.41094 2.59977,0.84003 2.93621,0.95354 0.9694,0.32704 1.1462,0.35424 1.38233,0.2126 0.11447,-0.0687 0.52073,-0.58946 0.9028,-1.15731 1.19207,-1.77175 4.3031,-6.37093 4.97411,-7.35349 0.3523,-0.51588 0.61565,-0.96121 0.58522,-0.98963 -0.0735,-0.0687 -0.58164,-0.23938 -3.48092,-1.1694 -1.34576,-0.4317 -2.81387,-0.9089 -3.26246,-1.06046 -0.44859,-0.15155 -1.80659,-0.59381 -3.01777,-0.98278 -1.82181,-0.58507 -8.370764,-2.70752 -13.370054,-4.3331 -0.80437,-0.26156 -1.17938,-0.42471 -1.28509,-0.55909 -0.0821,-0.10436 -0.57628,-0.82598 -1.09819,-1.6036 -0.52192,-0.7776 -1.25006,-1.85427 -1.61811,-2.39257 -1.58511,-2.31843 -2.99496,-4.46539 -3.10458,-4.72774 -0.30779,-0.73664 0.0292,-1.74332 0.72718,-2.17199 0.1406,-0.0864 1.39342,-0.5272 2.78404,-0.97965 1.39063,-0.45245 2.73027,-0.89078 2.977,-0.97406 0.4429,-0.14949 4.30803,-1.40345 9.787394,-3.17529 1.54762,-0.50045 2.90562,-0.94338 3.01776,-0.98428 0.11215,-0.0409 1.17237,-0.38707 2.35604,-0.76926 2.37284,-0.76617 2.77086,-0.82891 3.35807,-0.52934 0.43299,0.22089 0.58465,0.40246 1.67803,2.00893 0.51413,0.75538 1.32156,1.94232 1.79429,2.63763 0.47273,0.69531 1.38364,2.03333 2.02424,2.97338 l 1.16473,1.70916 1.70338,0.55628 c 0.93686,0.30595 2.32733,0.75892 3.08993,1.00661 0.7626,0.24768 2.21235,0.72077 3.22168,1.05131 1.00933,0.33053 3.21148,1.04728 4.89369,1.59277 1.68221,0.54549 4.10459,1.33336 5.38307,1.75083 5.04023,1.64581 5.89648,1.92014 5.9933,1.92014 0.0553,0 0.77326,-1.00014 1.59548,-2.22255 1.64595,-2.44703 3.35679,-4.98303 3.69424,-5.47601 0.24712,-0.36101 0.27985,-0.7425 0.0824,-0.96066 -0.0803,-0.0888 -1.30705,-0.53068 -3.03817,-1.09447 -1.59689,-0.52008 -3.10529,-1.01347 -3.35202,-1.09644 -0.51769,-0.17408 -3.08797,-1.00891 -6.76961,-2.1988 -1.41305,-0.45669 -2.77105,-0.89762 -3.01778,-0.97984 -0.24672,-0.0822 -1.60472,-0.52231 -3.01777,-0.97797 -1.41306,-0.45565 -2.83665,-0.91782 -3.16354,-1.02703 -0.34129,-0.11402 -0.67657,-0.17793 -0.78747,-0.15009 -0.21816,0.0547 -0.27851,0.13984 -4.00292,5.64292 -0.43295,0.63972 -0.85503,1.19944 -0.93794,1.24381 -0.25078,0.13421 -0.48403,0.0918 -0.70387,-0.12807 -0.37766,-0.37765 -0.58339,-0.0208 3.24637,-5.6307 0.65728,-0.96281 1.28826,-1.82387 1.40217,-1.91346 0.56151,-0.44169 1.27264,-0.52597 2.08067,-0.2466 0.55759,0.19279 1.24836,0.41742 12.93938,4.20784 1.48034,0.47994 3.33383,1.08263 4.11886,1.33929 0.78503,0.25667 2.32242,0.75746 3.41642,1.11288 1.72525,0.56051 2.03528,0.68683 2.33731,0.95234 0.57324,0.50392 0.76638,1.37655 0.45594,2.05991 -0.0817,0.17984 -0.5334,0.89554 -1.00378,1.59045 -0.99529,1.47037 -3.54218,5.24765 -4.09305,6.07038 -0.40482,0.6046 -0.44199,0.73448 -0.26808,0.93675 0.0609,0.0708 0.69244,0.99128 1.40344,2.04546 0.71101,1.05418 1.92601,2.85261 2.70002,3.99652 1.87913,2.77714 2.07799,3.10888 2.12763,3.54925 0.0649,0.57545 -0.11996,1.08495 -0.54677,1.50729 -0.36221,0.35842 -0.42837,0.38563 -2.73647,1.12544 -1.30091,0.41697 -2.5488,0.82476 -2.77309,0.90618 l -0.40781,0.14805 -0.0414,5.08859 c -0.046,5.65913 -0.0168,5.36501 -0.62022,6.24641 -0.31331,0.45766 -0.6201,0.72329 -1.13275,0.98075 -0.33347,0.16749 -0.39082,0.18708 -1.59045,0.54304 -0.3813,0.11314 -1.24381,0.36995 -1.91669,0.57068 -0.67289,0.20073 -1.92078,0.57223 -2.7731,0.82555 -0.85231,0.25333 -1.69648,0.51082 -1.87591,0.5722 -0.17944,0.0614 -1.097,0.33701 -2.03904,0.61252 -0.94203,0.27549 -2.17158,0.64145 -2.73231,0.81323 -1.69447,0.5191 -2.53399,0.77091 -5.30151,1.59019 -1.45791,0.4316 -2.79756,0.83434 -2.97699,0.89499 -1.42973,0.48327 -2.51293,0.712 -3.01778,0.63725 z"
         id="path1" /><path
         style="fill:#55ffdd;fill-opacity:1;stroke-width:0.264583"
         d="m 112.7745,166.12168 38.37492,33.24951"
         id="path19" /><path
         style="fill:#0066ff;fill-opacity:1;stroke-width:0.222523"
         d="m 119.13319,131.94787 v -1.68235 l 0.63432,0.016 0.63432,0.0159 0.0191,0.2399 0.0191,0.23991 0.27117,-0.21604 c 0.44168,-0.3519 1.10515,-0.45187 1.60901,-0.24244 0.59012,0.24526 0.64979,0.43092 0.64979,2.02135 v 1.29011 h -0.68073 -0.68073 l -1e-4,-0.99423 c -8e-5,-0.83435 -0.0175,-1.02577 -0.1083,-1.19029 -0.0938,-0.16991 -0.14185,-0.19828 -0.3606,-0.2128 -0.32171,-0.0214 -0.50781,0.10879 -0.58463,0.40885 -0.0315,0.12323 -0.058,0.62105 -0.0589,1.10626 l -8.5e-4,0.88221 h -0.68073 -0.68073 z"
         id="path28" /><path
         style="fill:#0066ff;fill-opacity:1;stroke-width:0.222523"
         d="m 107.1275,132.42917 v -1.20107 l -0.26301,-0.0173 -0.26302,-0.0173 v -0.44811 -0.4481 l 0.25471,-0.0168 0.2547,-0.0168 0.0327,-0.32624 c 0.0822,-0.81992 0.52291,-1.06605 1.75897,-0.98217 0.64919,0.0441 0.629,0.0232 0.50958,0.52716 l -0.067,0.28283 h -0.33306 c -0.36197,0 -0.46119,0.0769 -0.46119,0.35748 0,0.13034 0.0241,0.14204 0.32489,0.15771 l 0.3249,0.0169 0.0179,0.46211 0.0179,0.46212 h -0.34287 -0.34287 v 1.20428 1.20429 h -0.71167 -0.71168 z"
         id="path27" /><path
         style="fill:#0066ff;fill-opacity:1;stroke-width:0.222523"
         d="m 89.951477,133.5595 c -0.01649,-0.0389 -0.02257,-0.78878 -0.01352,-1.6664 l 0.01647,-1.59566 h 0.648579 0.648581 l -0.01899,0.23806 c -0.01046,0.13093 -2.34e-4,0.23805 0.02267,0.23805 0.0229,0 0.16263,-0.0964 0.310495,-0.21419 0.147864,-0.11781 0.378156,-0.24384 0.511755,-0.28006 0.56741,-0.15388 1.229968,-0.0169 1.47838,0.30569 0.237554,0.30846 0.266354,0.5027 0.266354,1.79642 v 1.25506 l -0.696206,-0.0171 -0.696206,-0.0171 -0.03094,-1.11089 c -0.02832,-1.0169 -0.0411,-1.11762 -0.151071,-1.19029 -0.142753,-0.0943 -0.426645,-0.10325 -0.600857,-0.0189 -0.244174,0.11829 -0.300118,0.37813 -0.300118,1.39403 v 0.95402 h -0.68269 c -0.492751,0 -0.69102,-0.0197 -0.712667,-0.0708 z"
         id="path26" /><path
         style="fill:#0066ff;fill-opacity:1;stroke-width:0.222523"
         d="m 115.01783,133.5809 c -0.58227,-0.24201 -0.64366,-0.43525 -0.64708,-2.03716 l -0.003,-1.2743 h 0.68074 0.68072 l 0.003,0.88221 c 0.004,1.30853 0.0784,1.52636 0.52139,1.52636 0.26466,0 0.44976,-0.13383 0.52521,-0.37974 0.0351,-0.11462 0.0641,-0.61882 0.0643,-1.12046 l 4.8e-4,-0.91204 0.6962,0.0158 0.69621,0.0158 v 1.65239 1.6524 h -0.64979 -0.6498 v -0.23813 c 0,-0.13098 -0.01,-0.2381 -0.0215,-0.23806 -0.0118,4e-5 -0.14243,0.0965 -0.29029,0.21426 -0.43938,0.35006 -1.10392,0.44957 -1.6067,0.2406 z"
         id="path23" /><path
         style="fill:#0066ff;fill-opacity:1;stroke-width:0.222523"
         d="m 102.26952,133.58064 c -0.43242,-0.1802 -0.49091,-0.34112 -0.51637,-1.42076 l -0.0221,-0.93822 h -0.27477 -0.27475 l 0.018,-0.46211 0.018,-0.46211 0.26302,-0.0173 0.263,-0.0173 v -0.30439 -0.30438 l 0.6797,-0.30855 c 0.37384,-0.16969 0.68714,-0.30856 0.69621,-0.30858 0.009,-3e-5 0.01,0.27723 0.002,0.61614 l -0.0147,0.6162 h 0.40151 0.4015 v 0.47611 0.47612 h -0.40912 -0.40913 l 0.0275,0.69714 c 0.0326,0.8274 0.0712,0.89895 0.45985,0.85074 0.30335,-0.0376 0.31174,-0.0255 0.34226,0.49518 l 0.0196,0.33465 -0.24753,0.0402 c -0.48162,0.0782 -1.16175,0.0501 -1.42336,-0.059 z"
         id="path18" /></g></g></svg>
