<svg width="30" height="30" fill="none" xmlns="http://www.w3.org/2000/svg"><path d="M11.25 27.5h7.5c6.25 0 8.75-2.5 8.75-8.75v-7.5C27.5 5 25 2.5 18.75 2.5h-7.5C5 2.5 2.5 5 2.5 11.25v7.5C2.5 25 5 27.5 11.25 27.5z" stroke="#081937" stroke-width="1.5" stroke-linecap="round" stroke-linejoin="round"/><path opacity=".4" d="M2.5 16.247h4.7a2.5 2.5 0 0 1 2.237 1.388l1.113 2.237c.7 1.375 1.95 1.375 2.25 1.375h4.412a2.5 2.5 0 0 0 2.238-1.387l1.113-2.238a2.5 2.5 0 0 1 2.237-1.387h4.675M12.925 8.75h4.162m-5.212 3.75h6.25" stroke="#081937" stroke-width="1.5" stroke-linecap="round" stroke-linejoin="round"/></svg>