<?xml version="1.0" encoding="UTF-8" standalone="no"?>
<svg
   width="24.22294"
   height="30.387461"
   viewBox="0 0 24.22294 30.387461"
   fill="none"
   version="1.1"
   id="svg4"
   sodipodi:docname="sim.svg"
   xml:space="preserve"
   inkscape:version="1.3.2 (091e20e, 2023-11-25)"
   xmlns:inkscape="http://www.inkscape.org/namespaces/inkscape"
   xmlns:sodipodi="http://sodipodi.sourceforge.net/DTD/sodipodi-0.dtd"
   xmlns="http://www.w3.org/2000/svg"
   xmlns:svg="http://www.w3.org/2000/svg"><defs
     id="defs4" /><sodipodi:namedview
     id="namedview4"
     pagecolor="#ffffff"
     bordercolor="#000000"
     borderopacity="0.25"
     inkscape:showpageshadow="2"
     inkscape:pageopacity="0.0"
     inkscape:pagecheckerboard="0"
     inkscape:deskcolor="#d1d1d1"
     inkscape:zoom="13.788582"
     inkscape:cx="4.7140452"
     inkscape:cy="9.1742572"
     inkscape:window-width="1392"
     inkscape:window-height="942"
     inkscape:window-x="307"
     inkscape:window-y="31"
     inkscape:window-maximized="0"
     inkscape:current-layer="svg4" /><path
     id="path46"
     style="fill:#081937;fill-opacity:0.4;stroke-width:0.0631767"
     d="m 8.9346187,11.478144 c -2.1945697,0.0056 -2.2612209,0.03905 -2.4861415,0.171896 -0.165504,0.09776 -0.3773624,0.320743 -0.4706698,0.495541 -0.1633062,0.305928 -0.1696408,0.506949 -0.1696408,5.373392 v 5.055535 l 0.1965252,0.278652 c 0.1080296,0.153207 0.3502898,0.361843 0.5384524,0.463695 l 0.3421803,0.185164 5.1699435,-4.15e-4 c 4.857217,-4.16e-4 5.191282,-0.0097 5.523104,-0.15368 0.194252,-0.08432 0.446245,-0.278046 0.560035,-0.430522 l 0.206872,-0.277204 0.02538,-4.94094 c 0.01392,-2.717512 0.0022,-5.06347 -0.02639,-5.213195 -0.06552,-0.34549 -0.614627,-0.878983 -0.975802,-0.948018 -0.14927,-0.02853 -2.599619,-0.05495 -5.445226,-0.05875 -1.289045,-0.0017 -2.2570963,-0.003 -2.9886233,-0.0011 z m -0.110568,0.909539 h 1.7232753 v 5.064461 5.064462 H 8.7914867 c -1.5278773,0 -1.7712015,-0.01774 -1.8741037,-0.13619 C 6.820775,22.269209 6.7947685,21.372482 6.7755125,17.482543 6.7523015,12.796883 6.7547575,12.718248 6.926345,12.554271 7.0897569,12.398095 7.2089398,12.387683 8.8240507,12.387683 Z m 2.7572643,0 h 2.714218 c 2.599327,0 2.721475,0.0069 2.886512,0.164658 0.163495,0.15625 0.172414,0.27454 0.172414,2.305811 v 2.141034 h -2.886635 -2.886509 v -2.305812 z m 0,5.59969 h 2.886509 2.886635 v 2.136448 c 0,2.114345 -0.0022,2.137689 -0.1916,2.264558 -0.163415,0.10939 -0.58674,0.128227 -2.886509,0.128227 h -2.695035 v -2.264677 z" /><path
     id="path44"
     style="fill:#081937;fill-opacity:1;stroke-width:0.0719018"
     d="m 9.7099092,0.11019046 c -6.7742312,0 -6.9005938,0.003503 -7.0818905,0.19911647 C 2.4450963,0.50667459 2.4434733,0.64117607 2.4434733,15.213838 c 0,13.543815 0.012084,14.719885 0.1527749,14.887609 0.1460974,0.174186 0.5674764,0.182196 9.6842978,0.182196 8.542006,0 9.546614,-0.01628 9.67659,-0.156524 0.130239,-0.140525 0.145068,-1.377077 0.145068,-12.1223 V 6.039036 L 19.35473,3.074613 16.607255,0.11019046 Z M 3.5510082,1.3051791 h 6.2997787 6.2996411 l 2.422185,2.6146199 2.422056,2.6147661 V 17.800887 c 0,10.181568 -0.01408,11.272235 -0.146012,11.32686 -0.20009,0.08284 -17.1592648,0.07697 -17.2361329,-0.0059 -0.03385,-0.03651 -0.061521,-6.310161 -0.061521,-13.941479 z" /></svg>
