<svg width="20" height="28" fill="none" xmlns="http://www.w3.org/2000/svg"><path d="M19.215 7.5v13c0 5.2-1.138 6.5-5.692 6.5h-6.83C2.137 27 1 25.7 1 20.5v-13C1 2.3 2.138 1 6.692 1h6.831c4.554 0 5.692 1.3 5.692 6.5z" stroke="#7E73EE" stroke-width="1.5" stroke-linecap="round" stroke-linejoin="round"/><path opacity=".4" d="M12.436 5.55H7.117m2.66 17.68c.546 0 1.07-.212 1.457-.59.386-.378.603-.89.603-1.425s-.217-1.047-.603-1.425a2.085 2.085 0 0 0-1.457-.59c-.547 0-1.071.212-1.458.59-.386.378-.603.89-.603 1.425 0 .534.217 1.047.603 1.425.387.378.911.59 1.458.59z" stroke="#7E73EE" stroke-width="1.5" stroke-linecap="round" stroke-linejoin="round"/></svg>