<svg width="26" height="26" fill="none" xmlns="http://www.w3.org/2000/svg"><path opacity=".4" d="M10.984 21.364c.168.132.336.252.516.384 1.368.996 2.748 1.788 4.128 2.376 1.38.588 2.688.876 3.912.876.84 0 1.62-.156 2.34-.456.732-.3 1.38-.768 1.968-1.416.348-.384.612-.792.816-1.224.204-.432.3-.876.3-1.308 0-.336-.072-.636-.192-.936a1.82 1.82 0 0 0-.66-.768l-3.972-2.82c-.3-.204-.576-.36-.84-.468a1.915 1.915 0 0 0-.732-.156c-.3 0-.576.084-.852.252-.276.144-.564.372-.864.672l-.912.9a.66.66 0 0 1-.492.204.828.828 0 0 1-.3-.048c-.084-.036-.156-.072-.216-.096a5.949 5.949 0 0 1-.78-.504" stroke="#081937" stroke-width="1.5" stroke-miterlimit="10" stroke-linecap="round" stroke-linejoin="round"/><path d="M11.476 14.464a41.045 41.045 0 0 1-1.74-1.896c-.528-.624-.9-1.14-1.116-1.536-.024-.072-.06-.144-.096-.24a1.09 1.09 0 0 1-.036-.276c0-.192.06-.348.192-.48l.912-.948c.288-.288.516-.576.672-.852.168-.276.252-.564.252-.852 0-.228-.06-.48-.168-.732a4.107 4.107 0 0 0-.48-.84L7.084 1.888a1.956 1.956 0 0 0-.804-.672A2.256 2.256 0 0 0 5.308 1c-.888 0-1.728.372-2.496 1.128a5.523 5.523 0 0 0-1.38 2.004C1.144 4.852 1 5.632 1 6.448c0 1.248.288 2.556.864 3.924.576 1.356 1.368 2.724 2.352 4.092a34.097 34.097 0 0 0 3.348 3.924" stroke="#081937" stroke-width="1.5" stroke-miterlimit="10" stroke-linecap="round" stroke-linejoin="round"/><path d="M25 1 1 25" stroke="#081937" stroke-width="1.5" stroke-linecap="round" stroke-linejoin="round"/></svg>