<svg width="54" height="54" viewBox="0 0 54 54" fill="none" xmlns="http://www.w3.org/2000/svg">
<circle cx="27" cy="27" r="27" fill="#FF661F"/>
<path d="M38.6318 27C38.6318 30.8617 35.4934 34 31.6318 34C29.9066 34.0039 28.2422 33.3631 26.9651 32.2033C28.4001 30.9317 29.2984 29.065 29.2984 27C29.2984 24.935 28.4001 23.0683 26.9651 21.7967C28.2422 20.6369 29.9066 19.9961 31.6318 20C35.4934 20 38.6318 23.1383 38.6318 27Z" fill="#FFF2EC"/>
<path opacity="0.4" d="M29.2983 27C29.2983 29.065 28.4 30.9317 26.965 32.2033C25.6879 33.3631 24.0235 34.0039 22.2983 34C18.4367 34 15.2983 30.8617 15.2983 27C15.2983 23.1383 18.4367 20 22.2983 20C24.095 20 25.7283 20.6767 26.965 21.7967C28.4 23.0683 29.2983 24.935 29.2983 27Z" fill="#FFF2EC"/>
</svg>
