<svg width="54" height="54" fill="none" xmlns="http://www.w3.org/2000/svg"><circle cx="27" cy="27" r="27" fill="#3A9FFD"/><path d="M38.632 27c0 3.862-3.139 7-7 7a6.918 6.918 0 0 1-4.667-1.797A6.938 6.938 0 0 0 29.298 27a6.938 6.938 0 0 0-2.333-5.203A6.918 6.918 0 0 1 31.632 20c3.861 0 7 3.138 7 7z" fill="#EEF7FF"/><path opacity=".4" d="M29.298 27a6.938 6.938 0 0 1-2.333 5.203A6.918 6.918 0 0 1 22.298 34c-3.861 0-7-3.138-7-7s3.139-7 7-7a6.92 6.92 0 0 1 4.667 1.797A6.938 6.938 0 0 1 29.298 27z" fill="#EEF7FF"/></svg>