<svg width="32" height="32" fill="none" xmlns="http://www.w3.org/2000/svg"><path d="M21.893 10.601a8.337 8.337 0 0 1 0 11.787 8.337 8.337 0 0 1-11.786 0 8.337 8.337 0 0 1 0-11.787 8.338 8.338 0 0 1 11.786 0z" stroke="#00ABFF" stroke-width="1.5" stroke-linecap="round" stroke-linejoin="round"/><path opacity=".4" d="M11.001 28.852c-2.666-1.067-5-3-6.546-5.68a13.187 13.187 0 0 1-1.667-8.333M7.8 5.973A13.248 13.248 0 0 1 16 3.147c3.027 0 5.813 1.026 8.053 2.733M21 28.852c2.667-1.067 5-3 6.547-5.68a13.187 13.187 0 0 0 1.666-8.333" stroke="#00ABFF" stroke-width="1.5" stroke-linecap="round" stroke-linejoin="round"/></svg>